<?xml version="1.0" encoding="UTF-8" standalone="no"?>
<!-- Uploaded to: SVG Repo, www.svgrepo.com, Generator: SVG Repo Mixer Tools -->

<svg
   fill="#000000"
   width="800px"
   height="800px"
   viewBox="0 0 256 256"
   id="Flat"
   version="1.1"
   sodipodi:docname="juventus.svg"
   inkscape:version="1.3.2 (091e20e, 2023-11-25, custom)"
   xmlns:inkscape="http://www.inkscape.org/namespaces/inkscape"
   xmlns:sodipodi="http://sodipodi.sourceforge.net/DTD/sodipodi-0.dtd"
   xmlns="http://www.w3.org/2000/svg"
   xmlns:svg="http://www.w3.org/2000/svg">
  <defs
     id="defs1" />
  <sodipodi:namedview
     id="namedview1"
     pagecolor="#ffffff"
     bordercolor="#000000"
     borderopacity="0.25"
     inkscape:showpageshadow="2"
     inkscape:pageopacity="0.0"
     inkscape:pagecheckerboard="0"
     inkscape:deskcolor="#d1d1d1"
     inkscape:zoom="0.97125"
     inkscape:cx="399.4852"
     inkscape:cy="400"
     inkscape:window-width="1920"
     inkscape:window-height="991"
     inkscape:window-x="-9"
     inkscape:window-y="-9"
     inkscape:window-maximized="1"
     inkscape:current-layer="Flat" />
  <path
     d="M227.80005,134.23145a3.95332,3.95332,0,0,0,.04126-.646C227.9436,131.73584,228,129.87451,228,128a99.52272,99.52272,0,0,0-22.29712-62.86963,3.98687,3.98687,0,0,0-.92725-1.12939A100.46161,100.46161,0,0,0,164.66211,34.96a4.06368,4.06368,0,0,0-.48486-.18555,99.984,99.984,0,0,0-72.35645.001,3.95657,3.95657,0,0,0-.47754.18262A100.461,100.461,0,0,0,51.22461,64.00049a3.99131,3.99131,0,0,0-.92774,1.13037A99.5222,99.5222,0,0,0,28,128c0,1.87549.05664,3.73779.15894,5.58789a3.98914,3.98914,0,0,0,.04052.6377,99.33821,99.33821,0,0,0,15.2273,47.07519,3.98659,3.98659,0,0,0,.68652,1.07129,100.3659,100.3659,0,0,0,58.33984,42.31543,3.90139,3.90139,0,0,0,.50049.13574,100.33133,100.33133,0,0,0,50.08692.002,4.01781,4.01781,0,0,0,.50781-.1377,100.36836,100.36836,0,0,0,58.33838-42.31543,3.98659,3.98659,0,0,0,.68652-1.07129A99.33138,99.33138,0,0,0,227.80005,134.23145Zm-60.14478,41.54443-10.53442-14.499,13.9978-43.08155,17.04517-5.53808,31.52148,22.92724a91.36619,91.36619,0,0,1-13.07715,40.1709Zm-79.31054,0-38.95288-.02051a91.36605,91.36605,0,0,1-13.07691-40.1709l31.52124-22.92724,17.04517,5.53808,13.9978,43.08155ZM52.37183,75.67773,62.43164,106.6958l-26.405,19.20557A91.45644,91.45644,0,0,1,52.37183,75.67773Zm53.84741,82.30079L92.75781,116.54883,128,90.94434l35.24219,25.60449-13.46143,41.42969Zm113.75415-32.07715-26.405-19.20606,10.05981-31.01758A91.45644,91.45644,0,0,1,219.97339,125.90137ZM197.70215,68.01953l-12.01,37.0293-17.04541,5.53857L132,83.96191V66.03955l31.54492-22.89307A92.44465,92.44465,0,0,1,197.70215,68.01953Zm-43.27124-28.144L128,59.05762,101.56934,39.87549a92.06653,92.06653,0,0,1,52.86157,0Zm-61.97559,3.271L124,66.03955V83.96191L87.35327,110.5874l-17.04541-5.53857-12.01-37.0293A92.44354,92.44354,0,0,1,92.45532,43.14648ZM54.875,183.7583l32.60156.01709,10.10718,31.05078A92.39617,92.39617,0,0,1,54.875,183.7583Zm52.009,33.79248L94.81665,180.478l10.53418-14.49951h45.29834L161.18335,180.478,149.116,217.55078a92.25036,92.25036,0,0,1-42.23194,0Zm51.53247-2.72461,10.10694-31.05078,32.60156-.01709A92.39545,92.39545,0,0,1,158.4165,214.82617Z"
     id="path1" />
  <path
     style="fill:#000000;stroke:#ffff00;stroke-width:0"
     d="M 373.23037,710.90839 C 299.28505,703.90751 231.60152,672.225 179.68826,620.31174 129.90216,570.52564 98.648335,506.0246 89.899029,435.00644 c -1.72535,-14.00469 -1.72535,-56.00819 0,-70.01288 4.30144,-34.91481 14.100481,-68.46623 29.159051,-99.83915 29.82166,-62.13025 79.96023,-113.0833 141.8029,-144.10647 137.15956,-68.805652 303.70917,-27.013234 393.41391,98.71965 29.7764,41.73548 49.34904,92.65175 55.82608,145.22597 1.72535,14.00469 1.72535,56.00819 0,70.01288 -8.75195,71.03957 -40.2974,136.08259 -89.98079,185.52984 -48.88789,48.6555 -111.17026,79.38751 -180.09024,88.86198 -13.99736,1.92422 -53.09099,2.80801 -66.79957,1.51013 z m 62.80567,-25.26742 c 13.02621,-1.67046 27.97182,-4.41917 29.61476,-5.44659 1.21538,-0.76004 38.63723,-115.0796 38.14879,-116.54024 -0.17858,-0.53402 -7.50615,-10.91892 -16.2835,-23.07757 L 471.55727,518.46992 H 400 328.44273 l -15.95882,22.10665 c -8.77735,12.15865 -16.10492,22.54355 -16.2835,23.07757 -0.48844,1.46064 36.93341,115.7802 38.14879,116.54024 1.28257,0.80206 14.84739,3.44288 25.92588,5.04729 22.18181,3.21241 52.57501,3.3726 75.76096,0.3993 z m -131.00523,-15.6281 c -0.26735,-0.99099 -7.37225,-22.99871 -15.78868,-48.90605 l -15.3026,-47.10425 h -51.25547 c -28.19052,0 -51.25549,0.35573 -51.25549,0.79051 0,0.43478 4.54623,6.11046 10.10273,12.61261 29.52213,34.54649 68.05438,62.19161 111.39019,79.91737 12.33464,5.04527 12.77089,5.14218 12.10932,2.68981 z m 200.25277,-1.94324 c 42.61796,-16.77076 83.45528,-45.87441 113.18513,-80.66394 5.55649,-6.50215 10.10272,-12.17783 10.10272,-12.61261 0,-0.43478 -23.06497,-0.79051 -51.25549,-0.79051 h -51.25547 l -15.3026,47.10425 c -17.15301,52.80013 -16.50797,50.70785 -15.63298,50.70785 0.35297,0 4.92438,-1.68527 10.15869,-3.74504 z m -212.4689,-140.658 c 8.7186,-12.03263 15.99862,-22.57251 16.17782,-23.42193 0.17921,-0.84942 -9.50245,-31.60294 -21.51481,-68.34115 l -21.84062,-66.79675 -26.87669,-8.73672 -26.87667,-8.73671 -49.3138,35.81051 c -27.12259,19.69577 -49.4269,35.88388 -49.56513,35.97356 -0.65919,0.42764 3.1721,26.8384 5.47681,37.7541 5.25543,24.89103 16.30943,54.42823 29.12416,77.8222 l 5.78094,10.55341 61.78799,-10e-4 61.788,-0.002 z m 360.11991,10.29751 c 16.94592,-31.13399 28.21442,-66.21865 32.78874,-102.08833 0.8596,-6.74059 1.44088,-12.35179 1.29173,-12.46931 -0.14914,-0.11753 -22.44873,-16.31901 -49.55462,-36.00328 l -49.28346,-35.78959 -26.90702,8.74658 -26.90703,8.74659 -21.82816,66.79675 c -12.00547,36.73821 -21.7352,67.41007 -21.62162,68.15968 0.1136,0.7496 7.38801,11.2865 16.16536,23.41535 l 15.95881,22.05243 61.79638,0.008 61.79636,0.008 z M 468.98327,493.15517 c 0,-0.29618 9.26641,-28.98837 20.59202,-63.76043 11.32561,-34.77206 20.59202,-63.85351 20.59202,-64.62546 0,-1.3946 -108.23653,-80.5994 -110.14231,-80.5994 -1.86982,0 -110.19231,79.27116 -110.19231,80.63951 0,0.74988 9.26641,29.81329 20.59202,64.58535 11.32561,34.77206 20.59202,63.46425 20.59202,63.76043 0,0.29619 31.04247,0.53852 68.98327,0.53852 37.9408,0 68.98327,-0.24233 68.98327,-0.53852 z M 152.89575,364.93351 c 21.8018,-15.86625 40.3175,-29.52437 41.146,-30.35138 1.70426,-1.70119 3.4356,4.24987 -17.44548,-59.96415 -7.58799,-23.33479 -12.89319,-38.12576 -13.53304,-37.7303 -1.50953,0.93293 -8.88181,12.65509 -15.49089,24.63098 -13.56898,24.58748 -23.54406,51.54557 -29.52557,79.79408 -3.32517,15.70359 -7.17334,52.53928 -5.48346,52.48907 0.38104,-0.0113 18.53064,-13.00206 40.33244,-28.8683 z m 534.74679,20.90948 c -2.29488,-37.605 -10.59871,-72.06646 -25.11936,-104.24711 -9.29393,-20.59719 -25.25114,-46.91669 -26.77696,-44.16538 -0.4383,0.79031 -7.62229,22.48349 -15.96443,48.20706 -10.35706,31.93671 -14.87224,47.23824 -14.23648,48.24612 0.98124,1.55559 80.69899,59.88368 81.89138,59.91849 0.38104,0.0111 0.47367,-3.57051 0.20585,-7.95918 z m -357.63365,-80.88336 57.1211,-41.50112 0.27322,-28.90253 0.27323,-28.90252 -46.60527,-33.77002 c -25.6329,-18.57351 -47.82805,-34.66304 -49.32255,-35.75451 l -2.71726,-1.98448 -8.60835,3.84499 c -19.06688,8.51639 -41.29273,22.15189 -59.17485,36.30361 -11.4014,9.02294 -29.01847,25.54334 -35.52058,33.30939 l -4.13378,4.93735 18.80365,58.08846 18.80363,58.08847 26.8216,8.797 c 14.75188,4.83835 26.83138,8.83075 26.84335,8.87201 0.012,0.0413 25.72626,-18.60048 57.14286,-41.4261 z m 240.45335,27.10878 10.35928,-3.42151 18.79234,-58.05355 18.79234,-58.05356 -4.13378,-4.93735 c -11.49644,-13.73123 -36.73839,-35.50906 -55.41223,-47.80764 -19.73052,-12.99451 -46.27309,-26.35906 -49.06415,-24.70448 -0.75803,0.44936 -22.9994,16.52838 -49.42528,35.73115 l -48.04705,34.91414 0.27315,28.84154 0.27315,28.84155 56.97319,41.38718 56.97318,41.38717 16.6433,-5.35157 c 9.1538,-2.94336 21.30495,-6.89124 27.00256,-8.77307 z M 442.80807,154.31103 c 22.35667,-16.22436 40.46956,-29.67776 40.25088,-29.89643 -0.21867,-0.21868 -3.59099,-1.27246 -7.49403,-2.34174 -38.72612,-10.60943 -81.53122,-12.78692 -121.89967,-6.20101 -12.47942,2.03596 -33.30155,6.76162 -35.84199,8.13447 -1.71708,0.92791 81.00518,61.08185 82.96441,60.33003 0.75456,-0.28956 19.66375,-13.80095 42.0204,-30.02532 z"
     id="path16"
     transform="scale(0.32)" />
  <path
     style="fill:#000000;stroke:#ffff00;stroke-width:0"
     d="m 244.96528,336.00496 -24.79018,-8.18213 -16.29466,-50.1405 c -8.96206,-27.57728 -17.37884,-53.60635 -18.70396,-57.84239 l -2.4093,-7.7019 15.69492,-15.50225 c 23.53746,-23.24853 45.17801,-38.7912 74.8267,-53.74201 14.59382,-7.35916 14.90612,-7.46203 17.50322,-5.76546 1.45435,0.95007 23.60952,16.95031 49.23372,35.55609 l 46.58945,33.82868 -0.0547,28.01759 -0.0547,28.01758 -56.46972,40.92664 c -31.05835,22.50966 -57.32717,40.8784 -58.37516,40.81942 -1.04799,-0.059 -13.06101,-3.78919 -26.69562,-8.28936 z"
     id="path32"
     transform="scale(0.32)" />
  <path
     style="fill:#000000;stroke:#ffff00;stroke-width:0"
     d="m 175.51505,548.52181 -21.13875,-0.29966 -5.89607,-10.59736 c -18.25202,-32.8054 -28.75899,-66.57798 -34.16777,-109.82556 l -0.45068,-3.60361 32.57798,-23.68082 c 17.91789,-13.02445 40.05407,-29.09364 49.19151,-35.70931 l 16.61351,-12.02848 25.66654,8.27618 c 14.1166,4.55189 26.00429,8.58817 26.41709,8.96951 0.92098,0.85076 43.32569,130.76946 43.39743,132.96019 0.0282,0.86195 -7.25739,11.63415 -16.19026,23.93822 l -16.24159,22.37104 -39.3201,-0.23534 c -21.62605,-0.12944 -48.83253,-0.37019 -60.45884,-0.535 z"
     id="path33"
     transform="scale(0.32)" />
  <path
     style="fill:#000000;stroke:#ffff00;stroke-width:0"
     d="m 384.04118,686.64164 c -17.71736,-1.36442 -47.33552,-5.88422 -49.12268,-7.49624 -1.53832,-1.38756 -37.79304,-114.7413 -37.08262,-115.94225 0.41163,-0.69586 7.69644,-10.82865 16.18847,-22.51731 l 15.44005,-21.25212 h 70.57554 70.57552 l 15.40013,21.26444 c 8.47006,11.69544 15.7369,21.82823 16.14853,22.51731 0.71115,1.19048 -35.54784,114.54557 -37.08262,115.92993 -0.95106,0.85786 -21.95572,4.6822 -33.09871,6.02632 -9.62246,1.16071 -39.90159,2.08908 -47.94161,1.46992 z"
     id="path34"
     transform="scale(0.32)" />
  <path
     style="fill:#000000;stroke:#ffff00;stroke-width:0"
     d="m 508.46442,526.92111 c -8.93287,-12.30407 -16.21849,-23.07627 -16.19026,-23.93822 0.0718,-2.19073 42.47645,-132.10943 43.39743,-132.96019 0.4128,-0.38134 12.30417,-4.41881 26.42527,-8.97216 l 25.67473,-8.27883 3.1541,2.23291 c 1.73476,1.2281 23.77186,17.23492 48.97135,35.57071 l 45.81725,33.3378 -0.28349,4.25965 c -2.15396,32.36468 -16.02404,77.30269 -33.62185,108.93226 l -6.02633,10.83146 -31.51421,0.67602 c -17.33283,0.37181 -44.57507,0.67683 -60.53831,0.67782 l -29.02409,0.002 z"
     id="path35"
     transform="scale(0.32)" />
  <path
     style="fill:#000000;stroke:#ffff00;stroke-width:0"
     d="m 469.79808,303.41579 -56.32804,-40.86753 0.21479,-28.18407 0.21478,-28.18407 48.69955,-35.3446 48.69955,-35.3446 7.92851,3.59261 c 29.6714,13.4449 57.47166,32.9305 82.82036,58.04996 l 15.17499,15.03776 -2.40418,7.68529 c -1.3223,4.22691 -9.73627,30.24697 -18.69771,57.82235 l -16.29354,50.13706 -25.46528,8.2928 c -14.0059,4.56104 -26.08861,8.2662 -26.8505,8.23369 -0.76188,-0.0325 -26.73285,-18.4495 -57.71328,-40.92665 z"
     id="path36"
     transform="scale(0.32)" />
</svg>
